<?xml version="1.0" encoding="UTF-8" standalone="no"?>
<!-- Created with Inkscape (http://www.inkscape.org/) -->

<svg
   xmlns:dc="http://purl.org/dc/elements/1.1/"
   xmlns:cc="http://creativecommons.org/ns#"
   xmlns:rdf="http://www.w3.org/1999/02/22-rdf-syntax-ns#"
   xmlns:svg="http://www.w3.org/2000/svg"
   xmlns="http://www.w3.org/2000/svg"
   xmlns:sodipodi="http://sodipodi.sourceforge.net/DTD/sodipodi-0.dtd"
   xmlns:inkscape="http://www.inkscape.org/namespaces/inkscape"
   width="800"
   height="240"
   id="svg6944"
   version="1.1"
   inkscape:version="0.48.4 r9939"
   sodipodi:docname="New document 5">
  <defs
     id="defs6946" />
  <sodipodi:namedview
     id="base"
     pagecolor="#ffffff"
     bordercolor="#666666"
     borderopacity="1.0"
     inkscape:pageopacity="0.0"
     inkscape:pageshadow="2"
     inkscape:zoom="0.59423077"
     inkscape:cx="529.16354"
     inkscape:cy="-56.104812"
     inkscape:document-units="px"
     inkscape:current-layer="layer1"
     showgrid="false"
     width="1052.36px"
     inkscape:window-width="1366"
     inkscape:window-height="746"
     inkscape:window-x="-8"
     inkscape:window-y="-8"
     inkscape:window-maximized="1" />
  <metadata
     id="metadata6949">
    <rdf:RDF>
      <cc:Work
         rdf:about="">
        <dc:format>image/svg+xml</dc:format>
        <dc:type
           rdf:resource="http://purl.org/dc/dcmitype/StillImage" />
        <dc:title></dc:title>
      </cc:Work>
    </rdf:RDF>
  </metadata>
  <g
     inkscape:label="Layer 1"
     inkscape:groupmode="layer"
     id="layer1"
     transform="translate(0,-812.36218)">
    <text
       xml:space="preserve"
       style="font-size:16px;font-style:normal;font-variant:normal;font-weight:normal;font-stretch:normal;line-height:125%;letter-spacing:0px;word-spacing:0px;fill:#000000;fill-opacity:1;stroke:none;font-family:Audimat Mono;-inkscape-font-specification:Audimat Mono"
       x="59.7411"
       y="73.398056"
       id="text7462"
       sodipodi:linespacing="125%"
       transform="translate(0,812.36218)"><tspan
         sodipodi:role="line"
         id="tspan7464"
         x="59.7411"
         y="73.398056" /></text>
    <g
       id="g7484">
      <path
         id="rect6952"
         d="m 20.194174,21.229773 196.893206,0 0,196.893207 -196.893206,0 z"
         style="fill:#00276b;fill-opacity:1;fill-rule:nonzero;stroke:none"
         transform="translate(0,812.36218)" />
      <g
         id="text7466"
         style="font-size:56px;font-style:normal;font-variant:normal;font-weight:normal;font-stretch:normal;line-height:125%;letter-spacing:0px;word-spacing:0px;fill:#ffffff;fill-opacity:1;stroke:none;font-family:Audimat Mono;-inkscape-font-specification:Audimat Mono">
        <path
           id="path7472"
           style=""
           d="m 49.872707,852.91541 0,4.42114 -8.842285,0 0,32.42114 8.842285,0 0,4.42114 -14.736572,0 0,-41.26342 z" />
        <path
           id="path7474"
           style=""
           d="m 74.87344,883.8634 7.367431,0 0,4.42115 -20.630859,0 0,-4.42115 7.369141,0 0,-32.42114 -7.369141,0 0,-4.42114 13.263428,0 z" />
        <path
           id="path7476"
           style=""
           d="m 111.66275,879.44226 c -0.147,1.71925 -0.515,3.19296 -1.10401,4.42114 -1.4743,2.94743 -4.05373,4.42115 -7.73828,4.42115 l -5.894286,0 0,11.79028 -5.894287,0 0,-41.26343 4.421143,0 1.473144,4.42114 c -1e-5,-2.75143 1.473703,-4.22515 4.421146,-4.42114 l 1.47314,0 c 3.68455,3e-5 6.26398,1.47374 7.73828,4.42114 0.58901,1.22822 0.95701,2.70193 1.10401,4.42115 z m -5.89429,1.47315 0,-14.73658 c -2e-5,-1.81719 -0.98268,-2.79929 -2.948,-2.94629 l -2.946288,0 c -1.817231,3e-5 -2.799896,0.98212 -2.947998,2.94629 l 0,17.68457 5.894286,0 c 1.81834,1e-5 2.80101,-0.98266 2.948,-2.94799 z" />
        <path
           id="path7478"
           style=""
           d="m 135.19033,851.44226 c -1.81723,4e-5 -2.7999,0.9827 -2.94799,2.948 l 0,5.89429 7.36914,0 0,4.42114 -7.36914,0 0,19.15771 8.84228,0 0,4.42115 -20.63086,0 0,-4.42115 5.89429,0 0,-19.15771 -4.42114,0 0,-4.42114 4.42114,0 0,-4.42115 c -1e-5,-3.68453 1.4737,-6.26339 4.42114,-7.73657 1.22818,-0.63912 2.70189,-1.00769 4.42114,-1.10571 l 5.89429,0 0,4.42114 z" />
        <path
           id="path7480"
           style=""
           d="m 152.82364,852.91541 14.73657,0 0,41.26342 -14.73657,0 0,-4.42114 8.84057,0 0,-32.42114 -8.84057,0 z" />
        <path
           id="path7482"
           style=""
           d="m 199.92837,863.23254 -5.89429,0 0,-2.94799 c -10e-6,-1.81719 -0.98268,-2.79986 -2.94799,-2.948 l -2.94629,0 c -1.81723,3e-5 -2.7999,0.98269 -2.948,2.948 l 0,4.42114 c -1e-5,1.81724 0.98265,2.79991 2.948,2.948 l 2.94629,0 c 3.68455,2e-5 6.26397,1.47373 7.73828,4.42114 0.589,1.22706 0.957,2.70021 1.104,4.41943 l 0,2.948 c -0.147,1.71925 -0.515,3.19296 -1.104,4.42114 -1.47431,2.94743 -4.05373,4.42115 -7.73828,4.42115 l -0.29395,0 0,2.94799 -2.3584,0 0,-2.94799 -0.29394,0 c -1.71925,-0.098 -3.19297,-0.46656 -4.42115,-1.10572 -2.94743,-1.47314 -4.42114,-4.05199 -4.42114,-7.73657 l 0,-1.47314 5.89429,0 0,2.94629 c 0.1481,1.96533 1.13077,2.948 2.948,2.94799 l 2.94629,0 c 1.96531,-0.14696 2.94798,-1.12963 2.94799,-2.94799 l 0,-5.89429 c -10e-6,-1.81721 -0.98268,-2.7993 -2.94799,-2.94629 l -2.94629,0 c -3.68458,2e-5 -6.26344,-1.4737 -7.73658,-4.42114 -0.59017,-1.22817 -0.95874,-2.70188 -1.10571,-4.42115 l 0,-1.47485 c 0,-3.6834 1.47371,-6.26226 4.42114,-7.73657 1.22818,-0.589 2.7019,-0.95757 4.42115,-1.10571 l 0.29394,0 0,-2.94629 2.3584,0 0,2.94629 0.29395,0 c 3.68455,3e-5 6.26397,1.47374 7.73828,4.42114 0.589,1.22822 0.957,2.70193 1.104,4.42114 z" />
      </g>
    </g>
    <g
       style="font-size:56px;font-style:oblique;font-variant:normal;font-weight:normal;font-stretch:normal;line-height:125%;letter-spacing:0px;word-spacing:0px;fill:#444444;fill-opacity:1;stroke:none;font-family:FreeSans;-inkscape-font-specification:FreeSans Oblique"
       id="text7494"
       transform="translate(8.4142395,0)">
      <path
         d="m 252.79109,839.88745 -8.67993,40.82422 -4.70483,0 8.67993,-40.82422 z"
         id="path7503"
         inkscape:connector-curvature="0" />
      <path
         d="m 262.68269,851.36841 -6.21557,29.34326 -4.70313,0 6.21558,-29.34326 z m 2.46436,-11.48096 -1.23218,5.76782 -4.70312,0 1.23217,-5.76782 z"
         id="path7505"
         inkscape:connector-curvature="0" />
      <path
         d="m 270.11165,851.36841 4.25708,0 -0.72803,3.63843 c 2.91209,-2.98614 6.53343,-4.47922 10.86401,-4.47925 2.31394,3e-5 4.16164,0.63463 5.5431,1.90381 1.38139,1.26923 2.07211,2.96796 2.07214,5.09619 -3e-5,0.78387 -0.0747,1.4931 -0.22388,2.12768 l -4.47925,21.0564 -4.70483,0 4.14429,-19.54395 c 0.22442,-0.89548 0.33664,-1.58591 0.33667,-2.07128 -3e-5,-1.30678 -0.46687,-2.38971 -1.40052,-3.24878 -0.93369,-0.85903 -2.09096,-1.28855 -3.4718,-1.28858 -2.53843,3e-5 -4.73191,0.8961 -6.58044,2.68823 -1.84857,1.79218 -3.09014,4.21894 -3.72473,7.28028 l -3.41455,16.18408 -4.70484,0 z"
         id="path7507"
         inkscape:connector-curvature="0" />
      <path
         d="m 317.49153,880.71167 -4.25537,0 0.67163,-3.19238 c -3.09898,2.9873 -6.70151,4.48095 -10.80762,4.48095 -2.42676,0 -4.32146,-0.54146 -5.68408,-1.62439 -1.36263,-1.08292 -2.04395,-2.57629 -2.04394,-4.4801 -10e-6,-0.70979 0.0558,-1.34439 0.16748,-1.90381 l 4.81592,-22.62353 4.70483,0 -4.42456,20.77441 c -0.11166,0.56056 -0.16749,1.06471 -0.16748,1.51245 -1e-5,1.30681 0.44774,2.35214 1.34326,3.13599 0.8955,0.78386 2.10887,1.17578 3.64014,1.17578 2.38914,0 4.49831,-0.90519 6.32751,-2.71558 1.82916,-1.81037 3.06105,-4.22744 3.69568,-7.25122 l 3.52905,-16.63183 4.70313,0 z"
         id="path7509"
         inkscape:connector-curvature="0" />
      <path
         d="m 340.40218,865.75977 6.8872,14.9519 -5.26367,0 -5.03979,-11.20068 -9.74463,11.20068 -5.48755,0 13.38476,-14.9519 -6.60864,-14.39136 5.20728,0 4.92871,10.75122 9.35156,-10.75122 5.43286,0 z"
         id="path7511"
         inkscape:connector-curvature="0" />
      <path
         d="m 268.80598,931.448 c -3e-5,5.78663 -1.55862,10.65866 -4.67578,14.61609 -3.11721,3.95744 -7.00913,5.93615 -11.67578,5.93615 -1.97902,0 -3.59372,-0.39221 -4.84411,-1.17663 -1.25042,-0.78442 -2.30515,-2.09094 -3.16419,-3.91956 l -3.35986,15.73633 -4.70313,0 8.79102,-41.27197 4.53735,0 -1.0083,4.70312 c 0.78384,-1.64287 2.18378,-2.97759 4.19983,-4.00415 2.01601,-1.0265 4.06936,-1.53976 6.16003,-1.53979 2.98614,3e-5 5.3565,0.98013 7.11109,2.94031 1.75452,1.96023 2.6318,4.62026 2.63183,7.9801 z m -15.9038,16.24048 c 2.12823,0 3.9765,-0.62549 5.5448,-1.87647 1.56825,-1.25097 2.707,-2.79105 3.41626,-4.62024 0.7092,-1.82917 1.22246,-3.47179 1.53979,-4.92785 0.31727,-1.45604 0.47592,-2.68822 0.47595,-3.69654 -3e-5,-2.42673 -0.5882,-4.32143 -1.76452,-5.68408 -1.17638,-1.3626 -2.80988,-2.04392 -4.90052,-2.04394 -1.64178,2e-5 -3.13486,0.42955 -4.47924,1.28857 -1.34442,0.85907 -2.40855,1.9044 -3.19239,3.13599 -0.78386,1.23162 -1.43698,2.59425 -1.95935,4.08789 -0.52239,1.49366 -0.877,2.82838 -1.06384,4.00415 -0.18686,1.17579 -0.28028,2.1932 -0.28027,3.05224 -1e-5,2.23992 0.59727,4.01327 1.79187,5.32007 1.19456,1.30681 2.81838,1.96021 4.87146,1.96021 z"
         id="path7513"
         inkscape:connector-curvature="0" />
      <path
         d="m 276.67415,921.36841 4.25708,0 -0.95191,4.59204 c 1.71695,-1.97898 3.27554,-3.3792 4.67579,-4.20068 1.4002,-0.82143 2.9212,-1.23215 4.56298,-1.23218 0.48533,3e-5 1.08291,0.0558 1.79273,0.16748 l -1.0083,4.76123 c -2.94973,2e-5 -5.4232,0.73717 -7.42041,2.21142 -1.99725,1.47431 -3.38779,4.07823 -4.17163,7.81177 l -3.24707,15.23218 -4.70484,0 z"
         id="path7515"
         inkscape:connector-curvature="0" />
      <path
         d="m 306.75911,920.52759 c 3.24818,3e-5 5.8521,0.97073 7.81177,2.91211 1.9596,1.94143 2.93942,4.46161 2.93945,7.56054 -3e-5,1.45608 -0.14928,3.01467 -0.44775,4.67579 -0.29854,1.66114 -0.85851,3.49032 -1.67994,5.48754 -0.82148,1.99724 -1.83889,3.7706 -3.05224,5.32007 -1.21341,1.54948 -2.86542,2.85629 -4.95606,3.92041 -2.09067,1.06413 -4.44223,1.59619 -7.05468,1.59619 -3.13657,0 -5.68495,-0.9707 -7.64515,-2.91211 -1.96021,-1.9414 -2.94031,-4.46158 -2.9403,-7.56054 -1e-5,-1.41845 0.14953,-2.95824 0.44861,-4.61939 0.29906,-1.66111 0.84992,-3.49058 1.65258,-5.4884 0.80265,-1.99778 1.81066,-3.78054 3.02405,-5.34827 1.21337,-1.56768 2.85599,-2.8836 4.92786,-3.94775 2.07184,-1.0641 4.39577,-1.59616 6.9718,-1.59619 z m -5.65674,27.16089 c 1.82974,0 3.46324,-0.43892 4.90051,-1.31678 1.43724,-0.87784 2.55719,-1.94197 3.35987,-3.19238 0.80263,-1.2504 1.45603,-2.65034 1.9602,-4.19983 0.50413,-1.54946 0.84023,-2.88418 1.0083,-4.00415 0.16803,-1.11994 0.25205,-2.09064 0.25208,-2.91211 -3e-5,-2.27748 -0.5788,-4.05084 -1.73633,-5.32007 -1.15758,-1.26918 -2.76288,-1.90378 -4.81592,-1.9038 -1.79217,2e-5 -3.40688,0.44806 -4.84411,1.34411 -1.43727,0.8961 -2.54783,1.96963 -3.33167,3.22058 -0.78387,1.251 -1.42787,2.65094 -1.93201,4.19983 -0.50416,1.54893 -0.84026,2.87424 -1.0083,3.97595 -0.16806,1.10174 -0.25208,2.04453 -0.25207,2.82837 -10e-6,2.23992 0.57876,4.01327 1.73633,5.32007 1.15754,1.30681 2.72524,1.96021 4.70312,1.96021 z"
         id="path7517"
         inkscape:connector-curvature="0" />
      <path
         d="m 333.72859,909.88745 -8.67993,40.82422 -4.70483,0 8.67993,-40.82422 z"
         id="path7519"
         inkscape:connector-curvature="0" />
      <path
         d="m 343.62019,921.36841 -6.21557,29.34326 -4.70313,0 6.21558,-29.34326 z m 2.46436,-11.48096 -1.23218,5.76782 -4.70312,0 1.23217,-5.76782 z"
         id="path7521"
         inkscape:connector-curvature="0" />
      <path
         d="m 361.18513,921.36841 -0.78271,3.75122 -4.81592,0 -5.43286,25.59204 -4.70312,0 5.43115,-25.59204 -3.92041,0 0.78442,-3.75122 3.92041,0 1.06299,-4.98511 c 0.44888,-2.09062 1.41047,-3.72384 2.88477,-4.89966 1.47426,-1.17574 3.29433,-1.76363 5.4602,-1.76367 0.82143,4e-5 1.66111,0.0935 2.51904,0.28027 l -0.83911,3.86402 c -0.52297,-0.0752 -1.02712,-0.11276 -1.51245,-0.1128 -1.19403,4e-5 -2.08982,0.27063 -2.68738,0.81177 -0.59759,0.54122 -1.04563,1.5216 -1.34411,2.94116 l -0.84082,3.86402 z"
         id="path7523"
         inkscape:connector-curvature="0" />
      <path
         d="m 360.33235,941.02344 c 0,-1.04475 0.12134,-2.28604 0.36402,-3.72388 0.24267,-1.43781 0.74682,-3.17385 1.51245,-5.20813 0.76561,-2.03424 1.73632,-3.88222 2.91211,-5.54394 1.17577,-1.66168 2.8369,-3.08042 4.98339,-4.25623 2.14647,-1.17575 4.58234,-1.76364 7.30762,-1.76367 3.02488,3e-5 5.56386,0.92402 7.61694,2.77197 2.05303,1.84801 3.07956,4.11583 3.07959,6.80347 -3e-5,1.41961 -0.31733,3.92099 -0.9519,7.50415 l -21.61523,0 c -0.18686,0.70981 -0.28029,1.56886 -0.28028,2.57715 -10e-6,2.38916 0.60668,4.23714 1.82007,5.54394 1.21337,1.30681 2.92121,1.96021 5.12354,1.96021 3.77114,0 6.68324,-1.9602 8.73632,-5.88062 l 4.70313,0 c -0.85794,3.02377 -2.6031,5.47844 -5.23547,7.36401 -2.63243,1.88558 -5.62856,2.82837 -8.98841,2.82837 -3.32228,0 -6.00082,-1.05472 -8.03564,-3.16418 -2.03484,-2.10945 -3.05225,-4.71366 -3.05225,-7.81262 z m 6.21558,-7.44776 16.46435,0 c 0.11163,-0.89549 0.16746,-1.51129 0.16748,-1.84741 -2e-5,-2.09063 -0.58791,-3.76145 -1.76367,-5.01245 -1.1758,-1.25095 -2.75319,-1.87644 -4.73218,-1.87646 -2.27638,2e-5 -4.34795,0.81207 -6.21472,2.43615 -1.86679,1.62413 -3.17388,3.72418 -3.92126,6.30017 z"
         id="path7525"
         inkscape:connector-curvature="0" />
      <path
         d="m 396.3304,921.36841 4.25708,0 -0.95191,4.59204 c 1.71695,-1.97898 3.27554,-3.3792 4.67579,-4.20068 1.4002,-0.82143 2.9212,-1.23215 4.56298,-1.23218 0.48533,3e-5 1.08291,0.0558 1.79273,0.16748 l -1.0083,4.76123 c -2.94973,2e-5 -5.4232,0.73717 -7.42041,2.21142 -1.99725,1.47431 -3.38779,4.07823 -4.17163,7.81177 l -3.24707,15.23218 -4.70484,0 z"
         id="path7527"
         inkscape:connector-curvature="0" />
      <path
         d="m 425.63094,924.83936 c -4.03208,2e-5 -6.58929,1.73635 -7.67164,5.20898 l -4.70483,0 c 0.52294,-3.09893 1.95108,-5.46046 4.28442,-7.08459 2.33332,-1.62408 5.44139,-2.43613 9.32422,-2.43616 2.94969,3e-5 5.31121,0.5788 7.0846,1.73633 1.77332,1.15758 2.66,2.68825 2.66003,4.59204 -3e-5,0.37372 -0.11225,1.06415 -0.33667,2.07129 l -3.58374,16.85571 c -0.0376,0.1128 -0.0564,0.29965 -0.0564,0.56055 -3e-5,1.08236 0.7092,1.62353 2.12768,1.62353 0.29847,0 0.61577,-0.037 0.95191,-0.11108 l -0.72803,3.64013 c -0.29853,0.0376 -0.63435,0.10283 -1.00745,0.19568 -0.37316,0.0929 -0.69986,0.16748 -0.9801,0.22388 -0.2803,0.0564 -0.60672,0.0846 -0.97925,0.0846 -1.23277,0 -2.19436,-0.3173 -2.88476,-0.9519 -0.69046,-0.6346 -1.09178,-1.21338 -1.20398,-1.73633 -0.11225,-0.52295 -0.16836,-1.06412 -0.16834,-1.62353 -0.0365,0.0365 -0.19485,0.17602 -0.4751,0.4187 -0.28029,0.24268 -0.48565,0.41073 -0.61609,0.50415 -0.13047,0.0934 -0.36375,0.27087 -0.69982,0.53235 -0.33613,0.26147 -0.61611,0.45744 -0.83997,0.58789 -0.2239,0.13045 -0.5506,0.31701 -0.9801,0.55969 -0.42955,0.24268 -0.82176,0.42952 -1.17664,0.56055 -0.35492,0.13102 -0.79355,0.28055 -1.31592,0.44861 -0.52239,0.16804 -1.03566,0.2985 -1.53979,0.39135 -0.50417,0.0929 -1.06414,0.16748 -1.67993,0.22388 -0.61582,0.0564 -1.25982,0.0846 -1.93201,0.0846 -2.50082,0 -4.47014,-0.63488 -5.90796,-1.90466 -1.43783,-1.26977 -2.15674,-3.02461 -2.15674,-5.26453 0,-2.576 1.01741,-4.88113 3.05225,-6.9154 2.03482,-2.03425 5.46019,-3.27582 10.27612,-3.72473 0.44774,-0.0364 1.19428,-0.092 2.23963,-0.16663 1.0453,-0.0746 1.78273,-0.14012 2.21228,-0.19653 0.4295,-0.0564 1.00827,-0.1592 1.73632,-0.30847 0.72801,-0.14924 1.26947,-0.3358 1.62439,-0.5597 0.35488,-0.22385 0.70009,-0.54116 1.03565,-0.9519 0.3355,-0.41071 0.55966,-0.91457 0.67248,-1.5116 l 0.16748,-1.0083 c 0.0752,-0.59698 0.11277,-1.00771 0.1128,-1.23217 -3e-5,-1.00828 -0.56029,-1.82973 -1.68079,-2.46436 -1.12055,-0.63458 -2.53929,-0.95188 -4.25622,-0.9519 z m 4.42456,11.42456 c -1.08238,0.37371 -2.7438,0.73772 -4.98426,1.09204 -2.24049,0.35434 -4.12607,0.67164 -5.65673,0.9519 -1.5307,0.28029 -2.92124,0.92429 -4.17164,1.93201 -1.25041,1.00774 -1.87561,2.35185 -1.87561,4.03235 0,1.19401 0.42923,2.10832 1.28772,2.74292 0.85847,0.6346 2.09036,0.9519 3.69568,0.9519 2.46434,0 4.75125,-0.644 6.86072,-1.93201 2.10943,-1.28799 3.35044,-2.79048 3.72302,-4.50744 z"
         id="path7529"
         inkscape:connector-curvature="0" />
      <path
         d="m 455.90901,921.36841 -0.78271,3.75122 -4.98511,0 -4.36816,20.55224 c -0.0741,0.44776 -0.1111,0.70924 -0.11109,0.78443 -1e-5,0.44776 0.18656,0.81149 0.55969,1.09119 0.37312,0.2797 0.85876,0.41955 1.45691,0.41955 0.4842,0 1.37971,-0.14925 2.68653,-0.44775 l -0.89551,4.08789 c -0.93312,0.26204 -2.1465,0.39306 -3.64014,0.39306 -1.53012,0 -2.74321,-0.39221 -3.63928,-1.17663 -0.89608,-0.78442 -1.34412,-1.86707 -1.34412,-3.24793 0,-0.597 0.0558,-1.17577 0.16748,-1.73632 l 4.42456,-20.71973 -3.9768,0 0.78442,-3.75122 3.97681,0 1.73462,-8.0647 4.70483,0 -1.73633,8.0647 z"
         id="path7531"
         inkscape:connector-curvature="0" />
      <path
         d="m 465.46394,921.36841 -6.21557,29.34326 -4.70313,0 6.21558,-29.34326 z m 2.46436,-11.48096 -1.23218,5.76782 -4.70312,0 1.23217,-5.76782 z"
         id="path7533"
         inkscape:connector-curvature="0" />
      <path
         d="m 484.82161,920.52759 c 3.24818,3e-5 5.8521,0.97073 7.81177,2.91211 1.9596,1.94143 2.93942,4.46161 2.93945,7.56054 -3e-5,1.45608 -0.14928,3.01467 -0.44775,4.67579 -0.29854,1.66114 -0.85851,3.49032 -1.67994,5.48754 -0.82148,1.99724 -1.83889,3.7706 -3.05224,5.32007 -1.21341,1.54948 -2.86542,2.85629 -4.95606,3.92041 -2.09067,1.06413 -4.44223,1.59619 -7.05468,1.59619 -3.13657,0 -5.68495,-0.9707 -7.64515,-2.91211 -1.96021,-1.9414 -2.94031,-4.46158 -2.9403,-7.56054 -1e-5,-1.41845 0.14953,-2.95824 0.44861,-4.61939 0.29906,-1.66111 0.84992,-3.49058 1.65258,-5.4884 0.80265,-1.99778 1.81066,-3.78054 3.02405,-5.34827 1.21337,-1.56768 2.85599,-2.8836 4.92786,-3.94775 2.07184,-1.0641 4.39577,-1.59616 6.9718,-1.59619 z m -5.65674,27.16089 c 1.82974,0 3.46324,-0.43892 4.90051,-1.31678 1.43724,-0.87784 2.55719,-1.94197 3.35987,-3.19238 0.80263,-1.2504 1.45603,-2.65034 1.9602,-4.19983 0.50413,-1.54946 0.84023,-2.88418 1.0083,-4.00415 0.16803,-1.11994 0.25205,-2.09064 0.25208,-2.91211 -3e-5,-2.27748 -0.5788,-4.05084 -1.73633,-5.32007 -1.15758,-1.26918 -2.76288,-1.90378 -4.81592,-1.9038 -1.79217,2e-5 -3.40688,0.44806 -4.84411,1.34411 -1.43727,0.8961 -2.54783,1.96963 -3.33167,3.22058 -0.78387,1.251 -1.42787,2.65094 -1.93201,4.19983 -0.50416,1.54893 -0.84026,2.87424 -1.0083,3.97595 -0.16806,1.10174 -0.25208,2.04453 -0.25207,2.82837 -10e-6,2.23992 0.57876,4.01327 1.73633,5.32007 1.15754,1.30681 2.72524,1.96021 4.70312,1.96021 z"
         id="path7535"
         inkscape:connector-curvature="0" />
      <path
         d="m 504.17415,921.36841 4.25708,0 -0.72803,3.63843 c 2.91209,-2.98614 6.53343,-4.47922 10.86401,-4.47925 2.31394,3e-5 4.16164,0.63463 5.5431,1.90381 1.38139,1.26923 2.07211,2.96796 2.07214,5.09619 -3e-5,0.78387 -0.0747,1.4931 -0.22388,2.12768 l -4.47925,21.0564 -4.70483,0 4.14429,-19.54395 c 0.22442,-0.89548 0.33664,-1.58591 0.33667,-2.07128 -3e-5,-1.30678 -0.46687,-2.38971 -1.40052,-3.24878 -0.93369,-0.85903 -2.09096,-1.28855 -3.4718,-1.28858 -2.53843,3e-5 -4.73191,0.8961 -6.58044,2.68823 -1.84857,1.79218 -3.09014,4.21894 -3.72473,7.28028 l -3.41455,16.18408 -4.70484,0 z"
         id="path7537"
         inkscape:connector-curvature="0" />
      <path
         d="m 255.31013,991.36841 -0.78271,3.75122 -4.81592,0 -5.43286,25.59207 -4.70312,0 5.43115,-25.59207 -3.92041,0 0.78442,-3.75122 3.92041,0 1.06299,-4.98511 c 0.44888,-2.09062 1.41047,-3.72384 2.88477,-4.89966 1.47426,-1.17574 3.29433,-1.76363 5.4602,-1.76367 0.82143,4e-5 1.66111,0.0935 2.51904,0.28027 l -0.83911,3.86402 c -0.52297,-0.0752 -1.02712,-0.11276 -1.51245,-0.1128 -1.19403,4e-5 -2.08982,0.27063 -2.68738,0.81177 -0.59759,0.54122 -1.04563,1.5216 -1.34411,2.94116 l -0.84082,3.86402 z"
         id="path7539"
         inkscape:connector-curvature="0" />
      <path
         d="m 271.64973,990.52759 c 3.24819,3e-5 5.85211,0.97073 7.81177,2.91211 1.95961,1.94143 2.93942,4.46161 2.93946,7.5605 -4e-5,1.4561 -0.14929,3.0147 -0.44776,4.6758 -0.29853,1.6612 -0.85851,3.4904 -1.67993,5.4876 -0.82148,1.9972 -1.8389,3.7706 -3.05225,5.32 -1.2134,1.5495 -2.86542,2.8563 -4.95605,3.9205 -2.09068,1.0641 -4.44224,1.5961 -7.05469,1.5961 -3.13657,0 -5.68494,-0.9707 -7.64514,-2.9121 -1.96021,-1.9414 -2.94031,-4.4615 -2.94031,-7.5605 0,-1.4185 0.14953,-2.9583 0.44861,-4.6194 0.29907,-1.6611 0.84993,-3.4906 1.65259,-5.4884 0.80264,-1.99778 1.81066,-3.78054 3.02405,-5.34827 1.21336,-1.56768 2.85598,-2.8836 4.92785,-3.94775 2.07184,-1.0641 4.39578,-1.59616 6.9718,-1.59619 z m -5.65673,27.16091 c 1.82973,0 3.46323,-0.4389 4.90051,-1.3168 1.43723,-0.8778 2.55719,-1.942 3.35986,-3.1924 0.80263,-1.2504 1.45603,-2.6503 1.96021,-4.1998 0.50412,-1.5495 0.84022,-2.8842 1.0083,-4.0042 0.16802,-1.1199 0.25205,-2.0906 0.25207,-2.9121 -2e-5,-2.27745 -0.5788,-4.05081 -1.73632,-5.32004 -1.15758,-1.26918 -2.76289,-1.90378 -4.81592,-1.9038 -1.79218,2e-5 -3.40688,0.44806 -4.84412,1.34411 -1.43727,0.8961 -2.54782,1.96963 -3.33166,3.22058 -0.78387,1.25095 -1.42787,2.65095 -1.93201,4.19985 -0.50416,1.5489 -0.84026,2.8742 -1.0083,3.9759 -0.16806,1.1018 -0.25209,2.0446 -0.25208,2.8284 -10e-6,2.2399 0.57877,4.0133 1.73633,5.3201 1.15754,1.3068 2.72525,1.9602 4.70313,1.9602 z"
         id="path7541"
         inkscape:connector-curvature="0" />
      <path
         d="m 308.19466,1020.7117 -4.25537,0 0.67163,-3.1924 c -3.09898,2.9873 -6.70152,4.4809 -10.80762,4.4809 -2.42677,0 -4.32146,-0.5414 -5.68408,-1.6243 -1.36264,-1.083 -2.04395,-2.5763 -2.04395,-4.4801 0,-0.7098 0.0558,-1.3444 0.16748,-1.9039 l 4.81592,-22.62349 4.70483,0 -4.42456,20.77439 c -0.11166,0.5606 -0.16749,1.0647 -0.16748,1.5125 -1e-5,1.3068 0.44775,2.3521 1.34326,3.136 0.8955,0.7838 2.10888,1.1757 3.64014,1.1757 2.38914,0 4.49831,-0.9051 6.32752,-2.7155 1.82916,-1.8104 3.06105,-4.2275 3.69567,-7.2513 l 3.52906,-16.63179 4.70312,0 z"
         id="path7543"
         inkscape:connector-curvature="0" />
      <path
         d="m 321.0804,991.36841 4.25708,0 -0.72803,3.63843 c 2.91209,-2.98614 6.53343,-4.47922 10.86401,-4.47925 2.31394,3e-5 4.16164,0.63463 5.5431,1.90381 1.38139,1.26923 2.07211,2.96796 2.07214,5.09619 -3e-5,0.78387 -0.0747,1.4931 -0.22388,2.12768 l -4.47925,21.05643 -4.70483,0 4.14429,-19.544 c 0.22442,-0.8955 0.33664,-1.58589 0.33667,-2.07126 -3e-5,-1.30678 -0.46687,-2.38971 -1.40052,-3.24878 -0.93369,-0.85903 -2.09096,-1.28855 -3.4718,-1.28858 -2.53843,3e-5 -4.73191,0.8961 -6.58044,2.68823 -1.84857,1.79218 -3.09014,4.21889 -3.72473,7.28029 l -3.41455,16.1841 -4.70484,0 z"
         id="path7545"
         inkscape:connector-curvature="0" />
      <path
         d="m 365.94124,1016.4563 c -0.85907,1.6794 -2.30601,3.0232 -4.34082,4.0315 -2.03485,1.0083 -4.05999,1.5124 -6.07544,1.5124 -2.91212,0 -5.23634,-0.9801 -6.97266,-2.9403 -1.73633,-1.9602 -2.60449,-4.5832 -2.60449,-7.869 0,-5.8982 1.54947,-10.8167 4.64844,-14.75535 3.09894,-3.93861 6.96295,-5.90793 11.59204,-5.90796 1.97898,3e-5 3.58428,0.39195 4.81592,1.17578 1.23158,0.78388 2.2957,2.09068 3.19238,3.92041 l 3.35986,-15.73633 4.70484,0 -8.68164,40.82425 -4.53565,0 z m -8.51245,1.2322 c 1.64288,0 3.13625,-0.4201 4.4801,-1.2604 1.34381,-0.8402 2.39825,-1.8671 3.16333,-3.0804 0.76503,-1.2134 1.40903,-2.5575 1.93201,-4.0324 0.52292,-1.4748 0.87782,-2.7907 1.06469,-3.9477 0.18683,-1.157 0.28025,-2.1462 0.28028,-2.9677 -3e-5,-2.3891 -0.5788,-4.24652 -1.73633,-5.57214 -1.15758,-1.32558 -2.78168,-1.98838 -4.87232,-1.9884 -1.71697,2e-5 -3.24765,0.43866 -4.59204,1.31591 -1.34441,0.87731 -2.39914,1.93203 -3.16418,3.16419 -0.76507,1.23224 -1.39027,2.59484 -1.87561,4.08784 -0.48536,1.4931 -0.81206,2.7905 -0.9801,3.8923 -0.16806,1.1017 -0.25209,2.0257 -0.25208,2.7719 -10e-6,2.4268 0.57877,4.303 1.73633,5.6286 1.15754,1.3256 2.76284,1.9884 4.81592,1.9884 z"
         id="path7547"
         inkscape:connector-curvature="0" />
      <path
         d="m 393.69344,994.83936 c -4.03208,2e-5 -6.58929,1.73635 -7.67164,5.20894 l -4.70483,0 c 0.52294,-3.09889 1.95108,-5.46042 4.28442,-7.08455 2.33332,-1.62408 5.44139,-2.43613 9.32422,-2.43616 2.94969,3e-5 5.31121,0.5788 7.0846,1.73633 1.77332,1.15758 2.66,2.68825 2.66003,4.59204 -3e-5,0.37372 -0.11225,1.06415 -0.33667,2.07129 l -3.58374,16.85575 c -0.0376,0.1128 -0.0564,0.2996 -0.0564,0.5605 -3e-5,1.0824 0.7092,1.6235 2.12768,1.6235 0.29847,0 0.61577,-0.037 0.95191,-0.111 l -0.72803,3.6401 c -0.29853,0.038 -0.63435,0.1028 -1.00745,0.1957 -0.37316,0.093 -0.69986,0.1675 -0.9801,0.2238 -0.2803,0.056 -0.60672,0.085 -0.97925,0.085 -1.23277,0 -2.19436,-0.3173 -2.88476,-0.9519 -0.69046,-0.6346 -1.09178,-1.2133 -1.20398,-1.7363 -0.11225,-0.5229 -0.16836,-1.0641 -0.16834,-1.6235 -0.0365,0.036 -0.19485,0.176 -0.4751,0.4187 -0.28029,0.2427 -0.48565,0.4107 -0.61609,0.5041 -0.13047,0.093 -0.36375,0.2709 -0.69982,0.5324 -0.33613,0.2615 -0.61611,0.4574 -0.83997,0.5879 -0.2239,0.1304 -0.5506,0.317 -0.9801,0.5597 -0.42955,0.2426 -0.82176,0.4295 -1.17664,0.5605 -0.35492,0.131 -0.79355,0.2806 -1.31592,0.4486 -0.52239,0.1681 -1.03566,0.2985 -1.53979,0.3914 -0.50417,0.093 -1.06414,0.1675 -1.67993,0.2238 -0.61582,0.056 -1.25982,0.085 -1.93201,0.085 -2.50082,0 -4.47014,-0.6348 -5.90796,-1.9046 -1.43783,-1.2698 -2.15674,-3.0246 -2.15674,-5.2645 0,-2.576 1.01741,-4.8812 3.05225,-6.9155 2.03482,-2.0342 5.46019,-3.2758 10.27612,-3.7247 0.44774,-0.036 1.19428,-0.092 2.23963,-0.1666 1.0453,-0.075 1.78273,-0.1401 2.21228,-0.1965 0.4295,-0.056 1.00827,-0.1592 1.73632,-0.3085 0.72801,-0.1492 1.26947,-0.3358 1.62439,-0.5597 0.35488,-0.2239 0.70009,-0.5412 1.03565,-0.9519 0.3355,-0.4107 0.55966,-0.9146 0.67248,-1.5116 l 0.16748,-1.00831 c 0.0752,-0.59698 0.11277,-1.00771 0.1128,-1.23217 -3e-5,-1.00828 -0.56029,-1.82973 -1.68079,-2.46436 -1.12055,-0.63458 -2.53929,-0.95188 -4.25622,-0.9519 z m 4.42456,11.42454 c -1.08238,0.3737 -2.7438,0.7377 -4.98426,1.0921 -2.24049,0.3543 -4.12607,0.6716 -5.65673,0.9519 -1.5307,0.2802 -2.92124,0.9242 -4.17164,1.932 -1.25041,1.0077 -1.87561,2.3518 -1.87561,4.0323 0,1.194 0.42923,2.1083 1.28772,2.7429 0.85847,0.6346 2.09036,0.9519 3.69568,0.9519 2.46434,0 4.75125,-0.644 6.86072,-1.932 2.10943,-1.288 3.35044,-2.7904 3.72302,-4.5074 z"
         id="path7549"
         inkscape:connector-curvature="0" />
      <path
         d="m 423.97151,991.36841 -0.78271,3.75122 -4.98511,0 -4.36816,20.55227 c -0.0741,0.4477 -0.1111,0.7092 -0.11109,0.7844 -1e-5,0.4478 0.18656,0.8115 0.55969,1.0912 0.37312,0.2797 0.85876,0.4195 1.45691,0.4195 0.4842,0 1.37971,-0.1492 2.68653,-0.4477 l -0.89551,4.0879 c -0.93312,0.262 -2.1465,0.393 -3.64014,0.393 -1.53012,0 -2.74321,-0.3922 -3.63928,-1.1766 -0.89608,-0.7844 -1.34412,-1.8671 -1.34412,-3.2479 0,-0.597 0.0558,-1.1758 0.16748,-1.7363 l 4.42456,-20.71977 -3.9768,0 0.78442,-3.75122 3.97681,0 1.73462,-8.0647 4.70483,0 -1.73633,8.0647 z"
         id="path7551"
         inkscape:connector-curvature="0" />
      <path
         d="m 433.52644,991.36841 -6.21557,29.34329 -4.70313,0 6.21558,-29.34329 z m 2.46436,-11.48096 -1.23218,5.76782 -4.70312,0 1.23217,-5.76782 z"
         id="path7553"
         inkscape:connector-curvature="0" />
      <path
         d="m 452.88411,990.52759 c 3.24818,3e-5 5.8521,0.97073 7.81177,2.91211 1.9596,1.94143 2.93942,4.46161 2.93945,7.5605 -3e-5,1.4561 -0.14928,3.0147 -0.44775,4.6758 -0.29854,1.6612 -0.85851,3.4904 -1.67994,5.4876 -0.82148,1.9972 -1.83889,3.7706 -3.05224,5.32 -1.21341,1.5495 -2.86542,2.8563 -4.95606,3.9205 -2.09067,1.0641 -4.44223,1.5961 -7.05468,1.5961 -3.13657,0 -5.68495,-0.9707 -7.64515,-2.9121 -1.96021,-1.9414 -2.94031,-4.4615 -2.9403,-7.5605 -1e-5,-1.4185 0.14953,-2.9583 0.44861,-4.6194 0.29906,-1.6611 0.84992,-3.4906 1.65258,-5.4884 0.80265,-1.99778 1.81066,-3.78054 3.02405,-5.34827 1.21337,-1.56768 2.85599,-2.8836 4.92786,-3.94775 2.07184,-1.0641 4.39577,-1.59616 6.9718,-1.59619 z m -5.65674,27.16091 c 1.82974,0 3.46324,-0.4389 4.90051,-1.3168 1.43724,-0.8778 2.55719,-1.942 3.35987,-3.1924 0.80263,-1.2504 1.45603,-2.6503 1.9602,-4.1998 0.50413,-1.5495 0.84023,-2.8842 1.0083,-4.0042 0.16803,-1.1199 0.25205,-2.0906 0.25208,-2.9121 -3e-5,-2.27745 -0.5788,-4.05081 -1.73633,-5.32004 -1.15758,-1.26918 -2.76288,-1.90378 -4.81592,-1.9038 -1.79217,2e-5 -3.40688,0.44806 -4.84411,1.34411 -1.43727,0.8961 -2.54783,1.96963 -3.33167,3.22058 -0.78387,1.25095 -1.42787,2.65095 -1.93201,4.19985 -0.50416,1.5489 -0.84026,2.8742 -1.0083,3.9759 -0.16806,1.1018 -0.25208,2.0446 -0.25207,2.8284 -10e-6,2.2399 0.57876,4.0133 1.73633,5.3201 1.15754,1.3068 2.72524,1.9602 4.70312,1.9602 z"
         id="path7555"
         inkscape:connector-curvature="0" />
      <path
         d="m 472.23665,991.36841 4.25708,0 -0.72803,3.63843 c 2.91209,-2.98614 6.53343,-4.47922 10.86401,-4.47925 2.31394,3e-5 4.16164,0.63463 5.5431,1.90381 1.38139,1.26923 2.07211,2.96796 2.07214,5.09619 -3e-5,0.78387 -0.0747,1.4931 -0.22388,2.12768 l -4.47925,21.05643 -4.70483,0 4.14429,-19.544 c 0.22442,-0.8955 0.33664,-1.58589 0.33667,-2.07126 -3e-5,-1.30678 -0.46687,-2.38971 -1.40052,-3.24878 -0.93369,-0.85903 -2.09096,-1.28855 -3.4718,-1.28858 -2.53843,3e-5 -4.73191,0.8961 -6.58044,2.68823 -1.84857,1.79218 -3.09014,4.21889 -3.72473,7.28029 l -3.41455,16.1841 -4.70484,0 z"
         id="path7557"
         inkscape:connector-curvature="0" />
    </g>
  </g>
</svg>
